<?xml version="1.0" encoding="utf-8"?>
<!-- Generator: Adobe Illustrator 24.3.0, SVG Export Plug-In . SVG Version: 6.00 Build 0)  -->
<svg version="1.1" id="Layer_1" xmlns="http://www.w3.org/2000/svg" xmlns:xlink="http://www.w3.org/1999/xlink" x="0px" y="0px"
	 viewBox="0 0 300 300" style="enable-background:new 0 0 300 300;" xml:space="preserve" fill="currentColor" stroke="currentColor" stroke-width="2" >
<!-- <style type="text/css">
	.st0{fill:#1D1D1B;}
</style> -->
<g>
	<path class="st0" d="M296.4,97.1c-1-0.7-2.3-0.7-3.2,0.1c-4.5,3.8-14.2,5.2-26.5,6.9c-22.8,3.2-54,7.6-80.7,31.7
		c-42.2,38-23.8,77.6-18.6,86.9c-5.9,5.2-24.6,23.6-31.1,53.1c-5.8-21.2-19.1-34.7-24-39.1c5.4-7.9,21.6-37.5-12.5-67.7
		c-15.7-13.9-25.7-16.6-40.9-20.6c-11.8-3.2-26.6-7.1-50-18c-1-0.5-2.3-0.2-3,0.6c-0.8,0.9-0.8,2.1-0.2,3.1
		c7.4,11.6,9.9,25.9,12.5,41.1c3.6,20.9,7.3,42.6,25.1,57.6c15.4,13,28.8,17,39.5,17c13.2,0,22.3-6.1,26.1-9.2
		c5.8,5.3,25.2,25.3,25.2,56.3c0,1.4,1.1,2.6,2.6,2.6s2.6-1.1,2.6-2.6c0-39.7,25.8-65,31.9-70.4c3.8,2.1,14,6.8,27.7,6.8
		c15.4,0,35.3-5.8,55.9-27.6c21.9-23,26.1-43.4,30.5-64.9c2.6-12.7,5.3-25.8,11.9-40.3C297.7,99.1,297.4,97.8,296.4,97.1z
		 M46.6,228.7c-16.4-13.8-19.9-34.5-23.3-54.5c-2.1-12.3-4.3-25-9.4-36.1c19.8,8.7,33,12.3,43.8,15.1c14.9,4,24,6.4,38.8,19.5
		c30.7,27.3,17.2,52.9,12.1,60.4l-17.4-17.4V191c0-1.4-1.1-2.6-2.6-2.6c-1.4,0-2.6,1.1-2.6,2.6v19.6l-16.8-16.8v-18
		c0-1.4-1.1-2.6-2.6-2.6c-1.4,0-2.6,1.1-2.6,2.6v12.8l-14.7-14.7c-1-1-2.6-1-3.6,0c-1,1-1,2.6,0,3.6l14.3,14.3H48
		c-1.4,0-2.6,1.1-2.6,2.6c0,1.4,1.1,2.6,2.6,2.6h17.3L82,213.8H63.2c-1.4,0-2.6,1.1-2.6,2.6s1.1,2.6,2.6,2.6h24l18,18
		C99,242,77.8,254.9,46.6,228.7z M280.3,139.5c-4.3,20.8-8.4,40.4-29.2,62.4c-35.3,37.2-66.7,25.5-76.1,20.7l22.2-22.2h29.8
		c1.4,0,2.6-1.1,2.6-2.6c0-1.4-1.1-2.6-2.6-2.6h-24.7l21.9-21.9h21.5c1.4,0,2.6-1.1,2.6-2.6c0-1.4-1.1-2.6-2.6-2.6h-16.4l18.6-18.6
		c1-1,1-2.6,0-3.6c-1-1-2.6-1-3.6,0L225.3,165v-17.2c0-1.4-1.1-2.6-2.6-2.6s-2.6,1.1-2.6,2.6v22.4L198.3,192v-25.5
		c0-1.4-1.1-2.6-2.6-2.6s-2.6,1.1-2.6,2.6v30.6L171.3,219c-5.4-9.9-20.3-44.8,18.2-79.5c25.5-23,55.8-27.3,77.9-30.4
		c8.9-1.3,16.5-2.3,22.3-4.4C284.9,117.1,282.6,128.5,280.3,139.5z"/>
	<path class="st0" d="M46.1,90.4c0,1.4,1.1,2.6,2.6,2.6c1.4,0,2.6-1.1,2.6-2.6c0-22.6,18.4-41,41-41c1.4,0,2.6-1.1,2.6-2.6
		s-1.1-2.6-2.6-2.6c-22.6,0-41-18.4-41-41c0-1.4-1.1-2.6-2.6-2.6c-1.4,0-2.6,1.1-2.6,2.6c0,22.6-18.4,41-41,41
		c-1.4,0-2.6,1.1-2.6,2.6s1.1,2.6,2.6,2.6C27.7,49.4,46.1,67.8,46.1,90.4z M48.7,18.5c4.6,13.2,15.1,23.8,28.4,28.4
		C63.8,51.5,53.3,62,48.7,75.2C44.1,62,33.6,51.5,20.3,46.9C33.6,42.2,44.1,31.7,48.7,18.5z"/>
	<path class="st0" d="M91.9,120.6c0,1.4,1.1,2.6,2.6,2.6c14.8,0,26.8,12,26.8,26.8c0,1.4,1.1,2.6,2.6,2.6c1.4,0,2.6-1.1,2.6-2.6
		c0-14.8,12-26.8,26.8-26.8c1.4,0,2.6-1.1,2.6-2.6c0-1.4-1.1-2.6-2.6-2.6c-14.8,0-26.8-12-26.8-26.8c0-1.4-1.1-2.6-2.6-2.6
		c-1.4,0-2.6,1.1-2.6,2.6c0,14.8-12,26.8-26.8,26.8C93,118,91.9,119.2,91.9,120.6z M123.8,103.7c3.2,7.5,9.3,13.6,16.8,16.8
		c-7.5,3.2-13.6,9.3-16.8,16.8c-3.2-7.5-9.3-13.6-16.8-16.8C114.5,117.3,120.6,111.3,123.8,103.7z"/>
	<path class="st0" d="M153.2,35.2c14.8,0,26.8,12,26.8,26.8c0,1.4,1.1,2.6,2.6,2.6s2.6-1.1,2.6-2.6c0-14.8,12-26.8,26.8-26.8
		c1.4,0,2.6-1.1,2.6-2.6c0-1.4-1.1-2.6-2.6-2.6c-14.8,0-26.8-12-26.8-26.8c0-1.4-1.1-2.6-2.6-2.6s-2.6,1.1-2.6,2.6
		c0,14.8-12,26.8-26.8,26.8c-1.4,0-2.6,1.1-2.6,2.6C150.7,34.1,151.8,35.2,153.2,35.2z M182.6,15.8c3.2,7.5,9.3,13.6,16.8,16.8
		c-7.5,3.2-13.6,9.3-16.8,16.8c-3.2-7.5-9.3-13.6-16.8-16.8C173.3,29.4,179.4,23.4,182.6,15.8z"/>
	<path class="st0" d="M283.7,38.2c3,0,5.5-2.5,5.5-5.5c0-3-2.5-5.5-5.5-5.5s-5.5,2.5-5.5,5.5C278.2,35.7,280.7,38.2,283.7,38.2z"/>
	<path class="st0" d="M238.9,71.9c3,0,5.5-2.5,5.5-5.5c0-3-2.5-5.5-5.5-5.5c-3,0-5.5,2.5-5.5,5.5C233.4,69.5,235.9,71.9,238.9,71.9z
		"/>
</g>
</svg>
