<?xml version="1.0" encoding="utf-8"?>
<!-- Generator: Adobe Illustrator 24.3.0, SVG Export Plug-In . SVG Version: 6.00 Build 0)  -->
<svg version="1.1" id="Layer_1" xmlns="http://www.w3.org/2000/svg" xmlns:xlink="http://www.w3.org/1999/xlink" x="0px" y="0px"
     viewBox="0 0 300 300" style="enable-background:new 0 0 300 300;" xml:space="preserve" fill="#676868" stroke="#676868" stroke-width="0.1">
  <g>
    <path d="M281.3,290.5L262.4,54.9c-0.4-4.6-4.2-8.1-8.8-8.1h-48.4c-11-62.5-99.5-62.4-110.4,0H46.3c-4.6,0-8.4,3.5-8.8,8.1
        L18.7,290.5c-0.2,2.4,0.6,4.9,2.3,6.7c1.7,1.8,4,2.8,6.5,2.8h245C277.5,300.1,281.8,295.5,281.3,290.5L281.3,290.5z M150,17.3
        c18.2,0,33.3,12.6,37.3,29.5h-74.6C116.7,29.9,131.9,17.3,150,17.3L150,17.3z M37,282.4l17.4-218h39.6v10
        c0.4,11.7,17.2,11.7,17.6,0v-10h76.6v10c0.4,11.7,17.2,11.7,17.6,0v-10h39.6l17.4,218H37z M37,282.4"/>
    <path d="M202.6,104.3l-18.6,9.3c-17,8.5-34.5,25.4-40.6,51.1c-7.2-9.6-16.5-17.5-27.3-22.9l-18.6-9.3c-5.8-2.9-12.7,1.3-12.7,7.9
        V162c0,43.5,31.5,65.6,44.5,72.1c7.4,3.7,12,11.1,12,19.4c0.4,11.7,17.2,11.7,17.6,0v-28.3c0-8.3,4.6-15.7,12-19.4
        c13-6.5,44.5-28.5,44.5-72.1v-21.6C215.3,105.6,208.5,101.4,202.6,104.3L202.6,104.3z M141.2,220.7c-1.3-0.9-2.7-1.7-4.1-2.4
        c-10.2-5.1-34.8-22.3-34.8-56.3v-7.4l5.9,2.9c20.4,10.2,33.1,30.7,33.1,53.5V220.7z M197.7,133.8c0,34-24.6,51.2-34.8,56.3
        c-1.4,0.7-2.8,1.5-4.1,2.4v-9.6c0-22.8,12.7-43.3,33.1-53.5l5.9-2.9V133.8z M197.7,133.8"/>
  </g>
</svg>
