<?xml version="1.0" encoding="utf-8"?>
<!-- Generator: Adobe Illustrator 24.3.0, SVG Export Plug-In . SVG Version: 6.00 Build 0)  -->
<svg version="1.1" id="Layer_1" xmlns="http://www.w3.org/2000/svg" xmlns:xlink="http://www.w3.org/1999/xlink" x="0px" y="0px"
	 viewBox="0 0 300 300" style="enable-background:new 0 0 300 300;" xml:space="preserve" fill="currentColor" stroke="currentColor" stroke-width="2">
<!-- <style type="text/css">
	.st0{fill:#4D4D4D;}
</style> -->
<g>
	<path class="st0" d="M224,63c-0.4-0.3-0.9-0.3-1.2,0c-1.8,1.5-5.5,2-10.3,2.7c-8.9,1.3-21.1,3-31.5,12.3
		c-16.4,14.8-9.3,30.3-7.2,33.9c-2.3,2-9.6,9.2-12.1,20.7c-2.3-8.3-7.4-13.5-9.4-15.3c2.1-3.1,8.4-14.6-4.9-26.4
		c-6.1-5.4-10-6.5-15.9-8c-4.6-1.2-10.4-2.8-19.5-7c-0.4-0.2-0.9-0.1-1.2,0.2c-0.3,0.3-0.3,0.8-0.1,1.2c2.9,4.5,3.9,10.1,4.9,16
		c1.4,8.2,2.8,16.6,9.8,22.5c6,5.1,11.2,6.6,15.4,6.6c5.1,0,8.7-2.4,10.2-3.6c2.2,2,9.8,9.9,9.8,22c0,0.6,0.4,1,1,1s1-0.4,1-1
		c0-15.5,10.1-25.3,12.4-27.5c1.5,0.8,5.4,2.6,10.8,2.6c6,0,13.7-2.3,21.8-10.8c8.5-9,10.2-16.9,11.9-25.3c1-5,2.1-10.1,4.6-15.7
		C224.5,63.7,224.4,63.2,224,63z M126.6,114.3c-6.4-5.4-7.8-13.4-9.1-21.3c-0.8-4.8-1.7-9.8-3.7-14.1c7.7,3.4,12.9,4.8,17.1,5.9
		c5.8,1.6,9.3,2.5,15.1,7.6c12,10.6,6.7,20.6,4.7,23.5l-6.8-6.8v-9.6c0-0.6-0.4-1-1-1s-1,0.4-1,1v7.6l-6.5-6.5v-7c0-0.6-0.4-1-1-1
		c-0.6,0-1,0.4-1,1v5l-5.7-5.7c-0.4-0.4-1-0.4-1.4,0c-0.4,0.4-0.4,1,0,1.4l5.6,5.6h-4.7c-0.6,0-1,0.4-1,1c0,0.6,0.4,1,1,1h6.7
		l6.5,6.5h-7.4c-0.6,0-1,0.4-1,1s0.4,1,1,1h9.4l7,7C147.1,119.4,138.8,124.5,126.6,114.3z M217.8,79.5c-1.7,8.1-3.3,15.8-11.4,24.3
		c-13.7,14.5-26,9.9-29.7,8.1l8.7-8.7H197c0.6,0,1-0.4,1-1c0-0.6-0.4-1-1-1h-9.6l8.5-8.5h8.4c0.6,0,1-0.4,1-1c0-0.6-0.4-1-1-1h-6.4
		l7.3-7.3c0.4-0.4,0.4-1,0-1.4c-0.4-0.4-1-0.4-1.4,0l-7.4,7.4v-6.7c0-0.6-0.4-1-1-1s-1,0.4-1,1v8.7l-8.5,8.5V90c0-0.6-0.4-1-1-1
		c-0.6,0-1,0.4-1,1V102l-8.5,8.5c-2.1-3.8-7.9-17.5,7.1-31c9.9-9,21.8-10.6,30.4-11.9c3.5-0.5,6.4-0.9,8.7-1.7
		C219.6,70.8,218.7,75.2,217.8,79.5z"/>
	<g>
		<path class="st0" d="M261.9,92.9c-11.1-21.4-21.6-41.6-22.5-61.5V2.8c0-1.5-1.3-2.8-2.8-2.8H63.3c-1.5,0-2.8,1.3-2.8,2.8l0,28.6
			c-0.9,20-11.4,40.2-22.5,61.6C23.7,120.7,7.4,152.1,7.4,191v91.5c0,9.6,7.8,17.4,17.4,17.4h250.4c9.6,0,17.4-7.8,17.4-17.4V191
			C292.6,152.1,276.3,120.7,261.9,92.9z M13,282.6V191c0-37.6,16-68.4,30-95.5c8.3-15.9,16.2-31.2,20.3-46.6
			c4.1,15.3,12,30.7,20.3,46.6c14.1,27.1,30,57.9,30,95.5v91.5c0,6.5-5.3,11.8-11.8,11.8h-77C18.3,294.4,13,289.1,13,282.6z
			 M287,282.6c0,6.5-5.3,11.8-11.8,11.8H114.6c2.9-3.1,4.7-7.3,4.7-11.8V191c0-39-16.3-70.4-30.7-98.1C77.5,71.6,67,51.4,66.1,31.5
			V5.6h167.7l0,26c0,0.3,0.1,0.7,0.1,1H90.3c-1.5,0-2.8,1.3-2.8,2.8c0,1.5,1.3,2.8,2.8,2.8h144.2c2.6,19,12.3,37.6,22.5,57.3
			c6.5,12.5,13.4,25.8,18.9,40.1h-63.1c-1.5,0-2.8,1.3-2.8,2.8c0,1.5,1.3,2.8,2.8,2.8h65.2c5.4,15.3,9.1,31.7,9.1,49.8V282.6z"/>
		<path class="st0" d="M94.2,271.3l-28.1-17V150c0-1.5-1.3-2.8-2.8-2.8s-2.8,1.3-2.8,2.8v104.4l-28.1,17c-1.3,0.8-1.7,2.5-0.9,3.8
			c0.5,0.9,1.4,1.4,2.4,1.4c0.5,0,1-0.1,1.4-0.4l28-16.9l28,16.9c1.3,0.8,3,0.4,3.8-0.9C96,273.8,95.5,272.1,94.2,271.3z"/>
		<path class="st0" d="M244.4,177.1h-78.8c-6.8,0-12.4,5.6-12.4,12.4v57.1c0,6.8,5.6,12.4,12.4,12.4h78.8c6.8,0,12.4-5.6,12.4-12.4
			v-57.1C256.8,182.6,251.2,177.1,244.4,177.1z M251.2,246.6c0,3.7-3,6.8-6.8,6.8h-78.8c-3.7,0-6.8-3-6.8-6.8v-57.1
			c0-3.7,3-6.8,6.8-6.8h78.8c3.7,0,6.8,3,6.8,6.8V246.6z"/>
	</g>
</g>
</svg>
