<?xml version="1.0" encoding="utf-8"?>
<!-- Generator: Adobe Illustrator 24.3.0, SVG Export Plug-In . SVG Version: 6.00 Build 0)  -->
<svg version="1.1" id="Layer_1" xmlns="http://www.w3.org/2000/svg" xmlns:xlink="http://www.w3.org/1999/xlink" x="0px" y="0px"
	 viewBox="0 0 300 300" style="enable-background:new 0 0 300 300;" xml:space="preserve" fill="currentColor" stroke="currentColor" stroke-width="2">
<!-- <style type="text/css">
	.st0{fill:#4D4D4D;}
</style> -->
<g>
	<path class="st0" d="M148.1,203.3c-0.3-0.2-0.7-0.2-1,0c-1.4,1.2-4.5,1.6-8.4,2.2c-7.2,1-17.1,2.4-25.5,10
		c-13.3,12-7.5,24.5-5.9,27.5c-1.9,1.6-7.8,7.5-9.8,16.8c-1.8-6.7-6-11-7.6-12.4c1.7-2.5,6.8-11.8-3.9-21.4c-5-4.4-8.1-5.3-12.9-6.5
		c-3.7-1-8.4-2.2-15.8-5.7c-0.3-0.2-0.7-0.1-1,0.2c-0.2,0.3-0.3,0.7-0.1,1c2.4,3.7,3.1,8.2,3.9,13c1.1,6.6,2.3,13.5,7.9,18.2
		c4.9,4.1,9.1,5.4,12.5,5.4c4.2,0,7-1.9,8.2-2.9c1.8,1.7,8,8,8,17.8c0,0.4,0.4,0.8,0.8,0.8c0.4,0,0.8-0.4,0.8-0.8
		c0-12.6,8.2-20.5,10.1-22.3c1.2,0.7,4.4,2.1,8.8,2.1c4.9,0,11.1-1.8,17.7-8.7c6.9-7.3,8.2-13.7,9.7-20.5c0.8-4,1.7-8.2,3.8-12.8
		C148.5,203.9,148.4,203.5,148.1,203.3z M69.1,244.9c-5.2-4.4-6.3-10.9-7.4-17.2c-0.7-3.9-1.3-7.9-3-11.4c6.3,2.8,10.4,3.9,13.9,4.8
		c4.7,1.3,7.6,2,12.3,6.2c9.7,8.6,5.4,16.7,3.8,19.1l-5.5-5.5V233c0-0.4-0.4-0.8-0.8-0.8c-0.4,0-0.8,0.4-0.8,0.8v6.2l-5.3-5.3v-5.7
		c0-0.4-0.4-0.8-0.8-0.8s-0.8,0.4-0.8,0.8v4.1l-4.6-4.6c-0.3-0.3-0.8-0.3-1.1,0c-0.3,0.3-0.3,0.8,0,1.1l4.5,4.5h-3.8
		c-0.4,0-0.8,0.4-0.8,0.8c0,0.4,0.4,0.8,0.8,0.8H75l5.3,5.3h-6c-0.4,0-0.8,0.4-0.8,0.8c0,0.4,0.4,0.8,0.8,0.8h7.6l5.7,5.7
		C85.6,249.1,79,253.2,69.1,244.9z M143,216.7c-1.4,6.6-2.6,12.8-9.2,19.7c-11.1,11.7-21.1,8.1-24,6.5l7-7h9.4
		c0.4,0,0.8-0.4,0.8-0.8c0-0.4-0.4-0.8-0.8-0.8h-7.8l6.9-6.9h6.8c0.4,0,0.8-0.4,0.8-0.8c0-0.4-0.4-0.8-0.8-0.8h-5.2l5.9-5.9
		c0.3-0.3,0.3-0.8,0-1.1c-0.3-0.3-0.8-0.3-1.1,0l-6,6v-5.5c0-0.4-0.4-0.8-0.8-0.8c-0.4,0-0.8,0.4-0.8,0.8v7.1l-6.9,6.9v-8.1
		c0-0.4-0.4-0.8-0.8-0.8c-0.4,0-0.8,0.4-0.8,0.8v9.7l-6.9,6.9c-1.7-3.1-6.4-14.2,5.7-25.1c8.1-7.3,17.6-8.6,24.6-9.6
		c2.8-0.4,5.2-0.7,7-1.4C144.4,209.6,143.7,213.2,143,216.7z"/>
	<g>
		<path class="st0" d="M294.4,0.2h-68.2c-1.4,0-2.5,1.1-2.5,2.5v63.5c0,0.8,0.4,1.5,1,2l33.1,24.4v90.1c0,16.2-13.2,29.4-29.4,29.4
			c-16.2,0-29.4-13.2-29.4-29.4V83.7c0-28.2-23-51.2-51.2-51.2c-28.2,0-51.2,23-51.2,51.2v23.7L3.5,247.5c-0.4,0.6-0.5,1.3-0.3,2
			c0.2,0.7,0.6,1.3,1.3,1.6L98,299.5c0.4,0.2,0.8,0.3,1.2,0.3c0.4,0,0.8-0.1,1.1-0.3c0,0,93.6-48.4,93.6-48.4
			c0.6-0.3,1.1-0.9,1.3-1.6c0.2-0.7,0.1-1.4-0.3-2l-93.2-140.1V83.7c0-25.5,20.7-46.2,46.2-46.2c25.5,0,46.2,20.7,46.2,46.2v99.1
			c0,19,15.4,34.4,34.4,34.4c19,0,34.4-15.4,34.4-34.4V92.7l33.1-24.4c0.6-0.5,1-1.2,1-2V2.7C296.9,1.3,295.8,0.2,294.4,0.2z
			 M96.7,116.5v176.6L9.2,247.9L96.7,116.5z M101.7,293.1V116.5l87.4,131.4L101.7,293.1z M291.9,65l-31.6,23.3L228.7,65V5.2h63.2V65
			z"/>
		<path class="st0" d="M245.8,29.8h29c1.4,0,2.5-1.1,2.5-2.5c0-1.4-1.1-2.5-2.5-2.5h-29c-1.4,0-2.5,1.1-2.5,2.5
			C243.3,28.7,244.4,29.8,245.8,29.8z"/>
		<path class="st0" d="M245.8,53.8h29c1.4,0,2.5-1.1,2.5-2.5c0-1.4-1.1-2.5-2.5-2.5h-29c-1.4,0-2.5,1.1-2.5,2.5
			C243.3,52.7,244.4,53.8,245.8,53.8z"/>
	</g>
</g>
</svg>
