<?xml version="1.0" encoding="utf-8"?>
<!-- Generator: Adobe Illustrator 24.3.0, SVG Export Plug-In . SVG Version: 6.00 Build 0)  -->
<svg version="1.1" id="Layer_1" xmlns="http://www.w3.org/2000/svg" xmlns:xlink="http://www.w3.org/1999/xlink" x="0px" y="0px"
	 viewBox="0 0 100 100" style="enable-background:new 0 0 100 100;" xml:space="preserve">
<style type="text/css">
	.st0{fill:#1D1D1B;}
	<!-- .st0{fill:#000000;} -->
</style>
<g>
	<path class="st0" d="M50,59.5c-16.4,0-29.7-13.3-29.7-29.7C20.3,13.4,33.6,0,50,0s29.7,13.3,29.7,29.7C79.7,46.2,66.4,59.5,50,59.5
		z M50,1C34.2,1,21.3,13.9,21.3,29.8S34.2,58.5,50,58.5s28.7-12.9,28.7-28.7S65.8,1,50,1z"/>
</g>
<g>
	<path class="st0" d="M50,58.5C25.2,58.5,4.6,76.4,0.3,100h1C5.6,77,25.8,59.5,50,59.5S94.4,77,98.7,100h1
		C95.4,76.4,74.8,58.5,50,58.5z"/>
</g>
</svg>
